<svg width="854" height="542" viewBox="0 0 854 542" fill="none" xmlns="http://www.w3.org/2000/svg">
<path d="M13.545 215V62.565H41.28L99.76 150.93H86.645L144.91 62.565H172.645V215H134.59V126.205L140.61 127.925L105.565 180.6H80.625L45.795 127.925L51.815 126.205V215H13.545ZM299.755 217.795C288.002 217.795 277.18 215.788 267.29 211.775C257.4 207.762 248.729 202.172 241.275 195.005C233.965 187.838 228.232 179.453 224.075 169.85C219.919 160.103 217.84 149.64 217.84 138.46C217.84 127.28 219.847 116.96 223.86 107.5C228.017 97.8967 233.75 89.5117 241.06 82.345C248.37 75.1783 256.97 69.66 266.86 65.79C276.75 61.7767 287.572 59.77 299.325 59.77C311.079 59.77 321.9 61.7767 331.79 65.79C341.68 69.66 350.28 75.1783 357.59 82.345C364.9 89.5117 370.562 97.8967 374.575 107.5C378.732 117.103 380.81 127.495 380.81 138.675C380.81 149.855 378.732 160.247 374.575 169.85C370.562 179.453 364.9 187.91 357.59 195.22C350.28 202.387 341.68 207.977 331.79 211.99C322.044 215.86 311.365 217.795 299.755 217.795ZM299.325 183.395C307.925 183.395 315.379 181.532 321.685 177.805C327.992 174.078 332.865 168.847 336.305 162.11C339.745 155.373 341.465 147.49 341.465 138.46C341.465 131.867 340.462 125.847 338.455 120.4C336.592 114.953 333.797 110.295 330.07 106.425C326.344 102.412 321.9 99.33 316.74 97.18C311.58 95.03 305.775 93.955 299.325 93.955C290.725 93.955 283.272 95.8183 276.965 99.545C270.659 103.128 265.785 108.288 262.345 115.025C258.905 121.762 257.185 129.573 257.185 138.46C257.185 145.34 258.117 151.575 259.98 157.165C261.987 162.612 264.854 167.342 268.58 171.355C272.307 175.225 276.75 178.235 281.91 180.385C287.07 182.392 292.875 183.395 299.325 183.395ZM466.624 215L409.219 62.565H450.284L493.284 185.76H475.654L519.299 62.565H559.504L501.454 215H466.624ZM601.36 215V62.565H639.845V215H601.36ZM692.668 215V62.565H731.153V215H692.668ZM723.198 215V182.535H805.758V215H723.198ZM723.198 153.08V121.475H798.018V153.08H723.198ZM723.198 95.03V62.565H804.468V95.03H723.198ZM13.545 486V333.565H52.03V486H13.545ZM44.075 429.025V396.56H119.54V429.025H44.075ZM44.075 366.03V333.565H122.98V366.03H44.075ZM166.531 486V333.565H205.016V486H166.531ZM197.061 486V452.89H270.591V486H197.061ZM312.168 486V333.565H350.653V486H312.168ZM342.698 486V453.535H425.258V486H342.698ZM342.698 424.08V392.475H417.518V424.08H342.698ZM342.698 366.03V333.565H423.968V366.03H342.698ZM565.213 486L523.933 418.06H520.063L462.013 333.565H507.808L548.228 397.635H552.098L610.363 486H565.213ZM459.433 486L514.903 404.515L545.218 418.92L503.293 486H459.433ZM552.958 414.62L522.643 400L563.708 333.565H607.568L552.958 414.62Z" fill="url(#paint0_linear_9_3)"/>
<rect x="599" y="329" width="255" height="157" rx="78.5" fill="url(#paint1_linear_9_3)"/>
<defs>
<linearGradient id="paint0_linear_9_3" x1="-21.0725" y1="272" x2="869.993" y2="272" gradientUnits="userSpaceOnUse">
<stop stop-color="#00FFD1"/>
<stop offset="1" stop-color="#1DB8D7"/>
</linearGradient>
<linearGradient id="paint1_linear_9_3" x1="622" y1="343.5" x2="854" y2="470.5" gradientUnits="userSpaceOnUse">
<stop stop-color="#01FBD1"/>
<stop offset="1" stop-color="#26BAD3"/>
</linearGradient>
</defs>
</svg>
